<svg xmlns="http://www.w3.org/2000/svg" viewBox="0 0 204 283" fill="none" stroke="#503729" stroke-width="3.6" stroke-linejoin="round" stroke-linecap="round"><g transform="translate(12 14) scale(1)" ><ellipse cx="90" cy="248" rx="51" ry="8" fill="#503729" opacity=".14" stroke="none"/><path d="M62 181 51 237m58-56 13 56" fill="none" stroke="#63766B" stroke-width="19"/><path d="M51 237h-13M122 237h14" fill="none" stroke-width="10"/><path d="M57 90q36-17 58 6l17 93H44z" fill="#F5E8CE" /><path d="m60 94 27 17-7 68H45zm55 0-28 17 10 68h35z" fill="#A4B08A" /><path d="M55 147h20m26 0h19" fill="none" /><path d="M52 105 81 171 130 157M121 106 145 174 172 158" fill="none" stroke="#A08F69" stroke-width="13"/><circle cx="134" cy="155" r="8" fill="#FFDDBB" /><circle cx="176" cy="155" r="8" fill="#FFDDBB" /><ellipse cx="87" cy="56" rx="33" ry="30" fill="#FFDDBB"/><g transform="translate(87 56) scale(1)" ><path d="M-33-6q-5-41 29-35 30-8 35 28-21-3-28-16-13 21-36 23z" fill="#A99E87" /></g><circle cx="76" cy="57" r="2.3" fill="#503729" /><circle cx="99" cy="57" r="2.3" fill="#503729" /><path d="M77 72q10 8 19-1" fill="none" /><circle cx="68" cy="68" r="4" fill="#F2B69D" stroke="none"/><circle cx="107" cy="68" r="4" fill="#F2B69D" stroke="none"/><circle cx="75" cy="58" r="12" fill="none" /><circle cx="100" cy="58" r="12" fill="none" /><path d="M87 57h2" fill="none" /><path d="M71 73q8-10 16-2 9-8 17 2-8 8-17 2-7 7-16-2z" fill="#9F8B72" /><g transform="translate(128 126) scale(0.65)" ><g transform="translate(0 0) scale(1)" ><path d="M0 0h23l-3 36H4z" fill="#E4F3EF" /><path d="M6 7h11M7 14v13" fill="none" stroke="#FFFFFF" stroke-width="3"/></g><g transform="translate(31 0) scale(1)" ><path d="M0 0h23l-3 36H4z" fill="#E4F3EF" /><path d="M6 7h11M7 14v13" fill="none" stroke="#FFFFFF" stroke-width="3"/></g><g transform="translate(62 0) scale(1)" ><path d="M0 0h23l-3 36H4z" fill="#E4F3EF" /><path d="M6 7h11M7 14v13" fill="none" stroke="#FFFFFF" stroke-width="3"/></g><path d="M-5 36h96l-7 8H2z" fill="#FFF7DD" /></g></g></svg>