<svg xmlns="http://www.w3.org/2000/svg" viewBox="0 0 240 180"><g stroke="#4A3226" stroke-width="3.4" stroke-linecap="round" stroke-linejoin="round"><rect x="2" y="2" width="236" height="176" rx="10" fill="#FFFDF8"/><path d="M7 165h226" fill="none"/><rect x="20" y="127" width="200" height="10" rx="4" fill="#C8A26C"/><path d="M34 137v22l22-22M206 137v22l-22-22" fill="#DBC29E"/><path d="M85 99v-9q0-31 30-31t30 31v9" fill="none"/><path d="M63 91h114l9 36H53z" fill="#D19C99"/><rect x="80" y="83" width="25" height="40" rx="3" fill="#FFF0C4"/><path d="M85 92h15M85 99h15M85 111h15" fill="none"/><rect x="111" y="83" width="25" height="40" rx="3" fill="#FFF0C4"/><path d="M116 92h15M116 99h15M116 111h15" fill="none"/><rect x="142" y="83" width="25" height="40" rx="3" fill="#FFF0C4"/><path d="M147 92h15M147 99h15M147 111h15" fill="none"/><path d="M55 109q62 12 129 0v17H55z" fill="#D19C99"/></g></svg>
