<svg xmlns="http://www.w3.org/2000/svg" viewBox="0 0 160 160"><g stroke="#4A3226" stroke-width="3.4" stroke-linecap="round" stroke-linejoin="round"><g transform="translate(0 15) scale(0.87)"><ellipse cx="80" cy="48" rx="34" ry="33" fill="#DCEAF2"/><path d="M64 32l17-9M73 48l26-26" fill="none"/><rect x="24" y="88" width="112" height="13" rx="4" fill="#C8A26C"/><rect x="34" y="101" width="10" height="44" rx="4" fill="#C8A26C"/><rect x="116" y="101" width="10" height="44" rx="4" fill="#C8A26C"/><rect x="46" y="102" width="68" height="24" rx="4" fill="#E9C994"/><circle cx="80" cy="114" r="3" fill="#8BBEAD"/></g><g transform="translate(29 7) scale(0.78)"><path d="M25 75l60-17 35 45-56 21z" fill="#8FBEB1"/><path d="M50 86l20 25M78 80l24 20" fill="none"/></g><circle cx="36" cy="85" r="2" fill="#B39D85"/><circle cx="19" cy="99" r="3" fill="#B39D85"/><path d="M102 36l11-10M119 48l17-4" fill="none"/></g></svg>
