<svg xmlns="http://www.w3.org/2000/svg" viewBox="0 0 360 245" fill="none" stroke="#4A3226" stroke-width="3.6" stroke-linecap="round" stroke-linejoin="round"><rect x="0" y="0" width="360" height="245" rx="12" fill="#F5EBDB" stroke="#CDBDA5"/><ellipse cx="180" cy="224" rx="137" ry="10" fill="#DFCFB6" stroke="none"/><g transform="translate(66 83) scale(1.18)"><rect x="0" y="0" width="154" height="87" rx="6" fill="#A7B7B0" /><circle cx="26" cy="48" r="18" fill="#6F8787" /><circle cx="128" cy="48" r="18" fill="#6F8787" /><rect x="51" y="17" width="53" height="19" rx="2" fill="#DAD4AD" /><rect x="59" y="48" width="36" height="25" rx="1" fill="#FFF9EF" /><path d="M30 0 V-15 H124 V0" fill="none" stroke-width="6"/><path d="M173 3 V28 Q159 32 160 24 Q161 19 173 21 M174 3 L190 -3 V23 Q178 28 178 20 Q181 13 190 16" fill="none" stroke="#84988E"/></g></svg>