<svg xmlns="http://www.w3.org/2000/svg" viewBox="0 0 320 230" fill="none" stroke="#4A3226" stroke-width="3.6" stroke-linecap="round" stroke-linejoin="round"><g transform="translate(30 6) scale(1)"><path d="M35 144 L29 201 H50 L63 166 L76 201 H98 L91 144" fill="#796E5F" /><path d="M29 201 L18 210 H52 M76 201 V210 H110" fill="#4A3226" /><path d="M31 73 L96 73 L108 149 Q65 161 23 149 Z" fill="#7E9FAD" /><path d="M51 75 L64 96 L77 75" fill="#FFF9EF" /><path d="M64 96 V151" fill="none" stroke="#587582"/><rect x="29" y="117" width="21" height="19" rx="2" fill="#96B2BA" /><path d="M32 83 L52 112 L110 126" fill="none" stroke-width="7"/><circle cx="110" cy="126" r="6" fill="#F3CBAA" /><path d="M95 82 L124 105 L142 108" fill="none" stroke-width="7"/><circle cx="142" cy="108" r="6" fill="#F3CBAA" /><ellipse cx="63" cy="40" rx="29" ry="34" fill="#F3CBAA" /><path d="M36 35 Q23 13 42 9 Q49 -3 67 5 Q84 0 93 15 L89 30 L81 18 Q58 27 41 20 Z" fill="#D5BE94" /><path d="M46 6 Q43 19 53 23" fill="none" /><circle cx="53" cy="41" r="2" fill="#4A3226" /><circle cx="76" cy="41" r="2" fill="#4A3226" /><path d="M54 56 Q65 64 77 56" fill="none" /></g><g transform="translate(167 88) scale(0.95)"><path d="M34 72 L9 18 M34 72 L34 7 M34 72 L59 23" fill="none" stroke="#829B73" stroke-width="4"/><path d="M28 50 Q4 35 9 58 Q21 65 30 60 M38 46 Q61 31 61 50 Q52 60 37 58" fill="#9DAF91" /><g transform="translate(10 18) scale(0.8)"><circle cx="0" cy="-10" r="8" fill="#E0B06E" stroke-width="2.5"/><circle cx="10" cy="-3" r="8" fill="#E0B06E" stroke-width="2.5"/><circle cx="6" cy="8" r="8" fill="#E0B06E" stroke-width="2.5"/><circle cx="-6" cy="8" r="8" fill="#E0B06E" stroke-width="2.5"/><circle cx="-10" cy="-3" r="8" fill="#E0B06E" stroke-width="2.5"/><circle cx="0" cy="0" r="5" fill="#B88F51" stroke-width="2"/></g><g transform="translate(34 8) scale(0.92)"><circle cx="0" cy="-10" r="8" fill="#E9C4A4" stroke-width="2.5"/><circle cx="10" cy="-3" r="8" fill="#E9C4A4" stroke-width="2.5"/><circle cx="6" cy="8" r="8" fill="#E9C4A4" stroke-width="2.5"/><circle cx="-6" cy="8" r="8" fill="#E9C4A4" stroke-width="2.5"/><circle cx="-10" cy="-3" r="8" fill="#E9C4A4" stroke-width="2.5"/><circle cx="0" cy="0" r="5" fill="#B88F51" stroke-width="2"/></g><g transform="translate(58 25) scale(0.8)"><circle cx="0" cy="-10" r="8" fill="#E2B2B1" stroke-width="2.5"/><circle cx="10" cy="-3" r="8" fill="#E2B2B1" stroke-width="2.5"/><circle cx="6" cy="8" r="8" fill="#E2B2B1" stroke-width="2.5"/><circle cx="-6" cy="8" r="8" fill="#E2B2B1" stroke-width="2.5"/><circle cx="-10" cy="-3" r="8" fill="#E2B2B1" stroke-width="2.5"/><circle cx="0" cy="0" r="5" fill="#B88F51" stroke-width="2"/></g></g><path d="M205 185 H278 M263 170 L279 185 L263 200" fill="none" stroke="#947E63" stroke-width="6"/></svg>