<svg xmlns="http://www.w3.org/2000/svg" viewBox="0 0 160 240"><g stroke="#4A3226" stroke-width="3.4" stroke-linecap="round" stroke-linejoin="round"><ellipse cx="80" cy="224" rx="48" ry="7" fill="#4A3226" opacity=".12" stroke="none"/>
<path d="M61 162v52M94 162v52" stroke-width="14" fill="none"/><path d="M61 168v42M94 168v42" stroke="#596F8A" stroke-width="9"/><path d="M61 217H46M94 217h14" stroke-width="10"/>
<path d="M51 93L29 134M109 94l22 23" stroke-width="9"/><circle cx="26" cy="140" r="8" fill="#F6D2AE"/><circle cx="135" cy="114" r="8" fill="#F6D2AE"/>
<path d="M55 87l24-6 27 8 10 88-27 3-9-18-8 18-26-4z" fill="#788D78"/><path d="M66 85l13 11 14-11-9 50z" fill="#FFFDF6"/><path d="M76 98h8l3 25-7 9-6-9z" fill="#DBB15E"/><path d="M55 144h14M94 142h15"/>
<rect x="68" y="68" width="23" height="24" rx="8" fill="#F6D2AE"/>
<ellipse cx="80" cy="50" rx="30" ry="34" fill="#F6D2AE"/>
<path d="M49 46q-3-34 29-35 37-1 33 38l-10-21q-15 9-41 4l-6 19" fill="#74634F"/>
<path d="M50 50l-5-6M110 50l5-6"/><rect x="54" y="42" width="22" height="17" rx="6" fill="#FFFDF6"/><rect x="83" y="42" width="22" height="17" rx="6" fill="#FFFDF6"/><path d="M76 48h7"/>
<circle cx="66" cy="50" r="2" fill="#4A3226"/><circle cx="94" cy="50" r="2" fill="#4A3226"/><path d="M73 68q8 7 15-1" fill="none"/>
</g></svg>
