<svg xmlns="http://www.w3.org/2000/svg" viewBox="0 0 320 220" fill="none" stroke="#4A3226" stroke-width="3.5" stroke-linecap="round" stroke-linejoin="round"><rect x="0" y="0" width="320" height="220" rx="9" fill="#ECF3EC" stroke="none"/><rect x="0" y="166" width="320" height="54" rx="0" fill="#E2E7CE" stroke="none"/><rect x="14" y="15" width="187" height="170" rx="3" fill="#F1E3C9" /><rect x="111" y="42" width="72" height="143" rx="3" fill="#92A1A0" /><rect x="24" y="47" width="70" height="56" rx="3" fill="#CADDE0" /><path d="M24 14 H202 V40 H24 Z" fill="#C68465" /><path d="M0 185 H320" fill="none" stroke="#C2B69E"/><g transform="translate(97 55) scale(0.64)"><path d="M38 126 L20 174 L35 181 L62 141 L88 179 L102 169 L80 125" fill="#718990" /><path d="M20 174 L10 181 L33 188 L38 181 M88 180 L96 183 L112 174 L104 168" fill="#4A3226" /><path d="M33 74 L88 74 L105 137 Q61 153 19 137 Z" fill="#BC8277" /><path d="M49 76 Q62 94 77 75" fill="#FFFDF6" /><path d="M42 112 L54 112 M77 109 L88 109" fill="none" /><path d="M32 87 L17 117" fill="none" stroke-width="7"/><circle cx="17" cy="117" r="5.5" fill="#F4CDA8" /><path d="M92 86 L111 111" fill="none" stroke-width="7"/><circle cx="111" cy="111" r="5.5" fill="#F4CDA8" /><path d="M30 50 Q19 8 59 11 Q98 9 98 56 L85 75 H34 Z" fill="#6B432E" /><ellipse cx="62" cy="43" rx="23" ry="30" fill="#F4CDA8"/><path d="M36 33 Q34 6 66 14 Q88 16 88 35 L77 32 L74 23 L66 32 L56 28 L46 34 Z" fill="#6B432E" /><circle cx="51" cy="43" r="2" fill="#4A3226" /><circle cx="73" cy="43" r="2" fill="#4A3226" /><path d="M51 58 Q62 65 73 57" fill="none" /></g><path d="M112 150 L270 150" fill="none" stroke="#9B7951" stroke-width="4" stroke-dasharray="7 6"/><path d="M260.92130823599354 156.2110672073454 L270 150 L260.92130823599354 143.7889327926546" fill="none" stroke="#9B7951" stroke-width="4"/></svg>