<svg xmlns="http://www.w3.org/2000/svg" viewBox="0 0 160 160"><g stroke="#4A3226" stroke-width="5" stroke-linecap="round" stroke-linejoin="round"><path d="M44 43 L29 22 Q52 20 58 39 M106 39 Q115 16 134 23 L119 46" fill="#FFFDF6"/><path d="M43 56 L20 50 L26 78 L50 78 M113 55 L140 49 L135 78 L112 77" fill="#FFD9B3"/><rect x="43" y="37" width="76" height="82" rx="25" fill="#FFFDF6"/><path d="M46 49 Q80 37 73 70 L48 74" fill="#4A3226"/><circle cx="66" cy="76" r="4" fill="#4A3226"/><circle cx="100" cy="76" r="4" fill="#4A3226"/><rect x="57" y="91" width="51" height="31" rx="14" fill="#F7B4A2"/><circle cx="69" cy="106" r="3" fill="#4A3226"/><circle cx="96" cy="106" r="3" fill="#4A3226"/></g></svg>
