<svg xmlns="http://www.w3.org/2000/svg" viewBox="0 0 160 160"><g stroke="#4A3226" stroke-width="5" stroke-linecap="round" stroke-linejoin="round"><circle cx="48" cy="62" r="17" fill="#FFFDF6"/><circle cx="61" cy="42" r="17" fill="#FFFDF6"/><circle cx="82" cy="36" r="17" fill="#FFFDF6"/><circle cx="103" cy="44" r="17" fill="#FFFDF6"/><circle cx="115" cy="63" r="17" fill="#FFFDF6"/><circle cx="114" cy="88" r="17" fill="#FFFDF6"/><circle cx="102" cy="107" r="17" fill="#FFFDF6"/><circle cx="78" cy="115" r="17" fill="#FFFDF6"/><circle cx="54" cy="99" r="17" fill="#FFFDF6"/><path d="M60 67 L42 74 L45 89 L62 86 M99 67 L119 75 L116 90 L98 86" fill="#FFD9B3"/><rect x="60" y="54" width="39" height="51" rx="17" fill="#FFD9B3"/><circle cx="72" cy="73" r="3" fill="#4A3226"/><circle cx="88" cy="73" r="3" fill="#4A3226"/><path d="M76 89 Q80 93 85 89" fill="none"/></g></svg>
