<svg xmlns="http://www.w3.org/2000/svg" viewBox="0 0 1000 450"><g stroke="#4A3226" stroke-width="4" stroke-linecap="round" stroke-linejoin="round"><rect width="1000" height="450" rx="22" fill="#F8E8DF" stroke="none"/><path d="M0 380h1000v70H0z" fill="#E4D5C4" stroke="none"/><path d="M13 80h132v238H13z" fill="#FFFAF4" stroke="#CDBEAB"/><path d="M15 300l132-180M15 237l95-155" stroke="#F0DAC9" stroke-width="8"/><path d="M851 356V65h131v291M845 100h143" fill="none" stroke="#BC9A7B"/><path d="M881 148l28 10 28-10 15 35-20 8 22 134h-90l22-134-20-8z" fill="#D7BCA6" stroke="#BC9A7B"/><path d="M923 48l5-13 5 13 13 5-13 5-5 13-5-13-13-5zM444 15h104" fill="#EDD0A0" stroke="#CEB18C"/></g></svg>
